<?xml version="1.0" standalone="no"?>
<!DOCTYPE svg PUBLIC "-//W3C//DTD SVG 20010904//EN"
 "http://www.w3.org/TR/2001/REC-SVG-20010904/DTD/svg10.dtd">
<svg version="1.0" xmlns="http://www.w3.org/2000/svg"
 width="300.000000pt" height="225.000000pt" viewBox="0 0 300.000000 225.000000"
 preserveAspectRatio="xMidYMid meet">
<metadata>
Created by potrace 1.10, written by Peter Selinger 2001-2011
</metadata>
<g transform="translate(0.000000,225.000000) scale(0.100000,-0.100000)"
fill="#900000" stroke="none">
<path d="M409 2081 c-38 -18 -70 -47 -61 -55 3 -3 0 -6 -6 -6 -7 0 -12 -7 -12
-15 0 -8 -3 -15 -7 -15 -16 0 -7 -86 12 -128 15 -31 28 -45 52 -53 l33 -11
-25 -42 c-30 -52 -31 -80 -4 -125 l21 -35 -24 -18 c-12 -9 -26 -18 -30 -18
-14 0 -38 -59 -38 -94 0 -96 129 -140 205 -70 19 17 33 23 48 18 l22 -6 -22
22 -21 23 -39 -31 c-38 -31 -59 -37 -119 -34 -22 2 -34 9 -42 27 -26 57 -7
111 48 140 33 17 116 20 156 5 15 -6 28 -9 31 -7 2 2 -1 28 -6 58 -5 30 -9 44
-10 31 l-1 -23 -22 21 c-23 21 -55 23 -50 2 3 -18 -18 -14 -25 5 -4 9 1 29 10
45 15 26 15 28 -2 28 -27 0 -47 -44 -33 -74 10 -22 62 -43 62 -25 0 15 16 10
40 -11 27 -23 26 -23 -59 -10 -72 12 -90 26 -98 73 -7 44 18 91 57 109 19 8
34 24 41 45 13 41 55 81 116 113 26 14 50 27 53 30 3 3 14 10 24 16 16 8 30
25 43 52 3 6 80 -37 92 -52 7 -8 10 -20 6 -27 -12 -19 26 6 69 45 l39 36 43
-36 c24 -19 44 -43 44 -52 0 -9 1 -110 1 -224 0 -178 2 -207 16 -212 12 -5 13
-2 7 11 -4 10 -9 116 -11 237 l-2 219 -28 29 c-15 16 -39 35 -53 42 -24 13
-28 12 -69 -25 -42 -39 -58 -48 -46 -29 3 6 1 10 -5 10 -6 0 -26 11 -44 25
-18 14 -41 25 -51 25 -10 0 -15 3 -12 7 9 8 -24 32 -45 33 -9 0 -22 -13 -30
-30 -15 -36 -17 -36 -71 -8 -59 30 -126 38 -168 19z m291 -16 c0 -8 -4 -15 -9
-15 -5 0 -11 -10 -13 -22 -6 -40 -56 -57 -173 -59 -94 -1 -121 -8 -97 -23 5
-3 38 -6 75 -7 l67 -2 -31 -28 c-18 -16 -36 -26 -40 -23 -5 3 -9 0 -9 -6 0 -6
-5 -8 -10 -5 -6 4 -17 2 -24 -4 -10 -8 -16 -8 -25 3 -13 15 -5 46 13 46 6 0 5
4 -3 9 -40 25 -61 -30 -26 -65 27 -27 45 -30 63 -12 6 6 15 8 19 4 12 -11 -28
-31 -65 -32 -44 -2 -74 39 -75 105 -3 120 116 178 228 111 59 -35 95 -39 95
-11 0 30 11 51 26 51 8 0 14 -7 14 -15z"/>
<path d="M425 2041 c-27 -11 -60 -49 -51 -58 4 -4 11 -1 16 7 7 10 10 11 10 3
0 -7 5 -13 10 -13 6 0 10 10 10 23 0 19 6 22 50 25 27 2 59 -2 71 -9 14 -7 19
-7 15 0 -7 11 -71 31 -96 30 -8 0 -24 -4 -35 -8z"/>
<path d="M572 2000 c0 -14 2 -19 5 -12 2 6 2 18 0 25 -3 6 -5 1 -5 -13z"/>
<path d="M355 1960 c-3 -5 3 -10 14 -10 12 0 21 5 21 10 0 6 -6 10 -14 10 -8
0 -18 -4 -21 -10z"/>
<path d="M1720 2063 c-8 -3 -23 -13 -33 -21 -14 -13 -20 -13 -26 -4 -4 7 -15
10 -23 7 -16 -7 -30 -40 -21 -49 3 -3 7 -110 8 -238 1 -232 6 -271 39 -304 8
-7 16 -18 18 -23 1 -5 17 -13 33 -16 l30 -7 -32 21 c-60 38 -63 55 -63 315 0
129 -4 246 -10 260 -14 39 8 33 24 -6 13 -29 14 -30 20 -10 10 31 54 62 90 63
30 1 30 1 6 9 -30 10 -40 10 -60 3z"/>
<path d="M2490 2061 c-8 -6 -17 -8 -21 -5 -4 2 -12 -3 -19 -11 -15 -18 -37
-19 -43 -2 -3 8 -9 6 -19 -7 -10 -13 -14 -40 -12 -87 l2 -69 -29 0 c-27 0 -29
2 -29 43 0 23 4 49 9 57 6 8 7 18 4 24 -12 19 -52 -79 -53 -127 0 -44 1 -47
16 -33 17 17 89 23 79 6 -3 -6 -27 -15 -53 -22 -25 -6 -41 -13 -34 -16 9 -3
12 -39 10 -135 -1 -104 -3 -119 -8 -72 l-7 60 -1 -58 c-2 -63 4 -74 54 -100
17 -9 49 -34 71 -56 50 -50 65 -53 29 -7 -14 19 -26 41 -26 49 0 10 -7 13 -21
10 -21 -6 -21 -5 -5 20 15 22 17 54 14 266 -2 133 -2 241 0 241 2 0 9 -14 16
-31 l13 -32 19 32 c10 18 30 34 44 37 14 3 34 8 45 11 20 6 20 6 0 14 -27 10
-28 10 -45 0z m-113 -373 c-3 -148 -11 -177 -46 -159 -20 11 -21 18 -20 141
l1 130 24 0 c14 0 22 4 19 10 -3 6 1 10 9 10 14 0 15 -19 13 -132z"/>
<path d="M2529 2033 c-30 -5 -79 -50 -55 -50 8 0 12 5 9 10 -3 6 -1 7 6 3 8
-5 9 -12 3 -19 -5 -7 -9 -45 -8 -84 l2 -73 -36 -1 -35 -2 40 -7 40 -7 -37 -2
-38 -1 0 -64 c0 -61 1 -64 22 -58 12 3 17 7 10 10 -7 2 -12 23 -12 54 0 46 1
49 17 37 9 -8 14 -9 11 -4 -3 6 12 19 34 30 22 11 45 30 51 42 13 30 23 29 58
-6 32 -33 40 -17 9 19 -11 13 -20 20 -20 15 0 -4 -6 -2 -14 4 -11 9 -20 10
-36 1 -11 -6 -18 -15 -15 -19 2 -5 -4 -11 -15 -14 -25 -6 -28 4 -18 82 6 54
12 69 35 88 16 12 26 22 23 21 -3 0 -17 -3 -31 -5z"/>
<path d="M1732 2017 c-11 -13 -11 -75 0 -93 4 -6 5 -14 1 -17 -10 -11 -9 -77
2 -77 6 0 4 -4 -3 -9 -11 -7 -11 -9 1 -14 16 -6 67 34 67 53 0 20 39 9 60 -17
20 -26 21 -37 18 -157 -2 -93 -7 -131 -16 -134 -6 -2 -10 -8 -6 -13 3 -5 0 -9
-5 -9 -26 0 -71 -42 -71 -66 0 -9 -5 -12 -12 -8 -7 5 -8 3 -3 -5 5 -9 13 -7
29 8 12 12 28 21 34 21 6 0 24 19 39 42 26 39 28 49 30 162 2 136 -8 170 -57
199 -28 17 -29 17 -56 -8 -15 -14 -29 -25 -31 -25 -3 0 -3 18 -2 40 2 21 0 42
-3 46 -4 3 -3 17 2 30 5 13 7 24 4 24 -4 0 4 9 17 20 l24 19 -26 1 c-15 0 -31
-6 -37 -13z"/>
<path d="M726 1993 c-6 -14 -5 -15 5 -6 7 7 10 15 7 18 -3 3 -9 -2 -12 -12z"/>
<path d="M750 2002 c0 -12 19 -26 26 -19 2 2 -2 10 -11 17 -9 8 -15 8 -15 2z"/>
<path d="M930 1997 c0 -8 7 -14 15 -14 11 0 12 4 4 14 -6 7 -13 13 -15 13 -2
0 -4 -6 -4 -13z"/>
<path d="M2276 1986 c-15 -13 -26 -28 -26 -35 0 -6 -4 -11 -10 -11 -5 0 -10
-7 -10 -15 0 -8 -4 -15 -10 -15 -5 0 -10 -6 -10 -13 0 -8 -11 -20 -25 -27 -13
-7 -29 -25 -34 -39 -5 -14 -10 -21 -10 -14 -1 6 -14 26 -30 43 -22 24 -34 30
-50 25 -12 -3 -21 -12 -21 -19 0 -21 -45 -56 -72 -56 -43 0 -48 -16 -44 -166
4 -154 17 -202 65 -225 36 -17 61 -21 61 -9 0 6 -9 10 -19 10 -11 0 -33 13
-49 30 -30 30 -30 30 -34 167 -2 76 -6 144 -9 151 -3 10 8 15 36 17 41 4 85
41 85 71 0 20 13 17 30 -7 8 -11 25 -32 38 -45 25 -29 25 -29 12 -55 -7 -12
-7 -19 -1 -19 11 0 26 39 23 58 -2 6 6 12 18 12 19 0 20 -4 15 -125 -2 -69 -7
-141 -10 -159 -7 -35 9 -51 39 -40 15 6 28 54 15 54 -5 0 -9 -6 -9 -14 0 -8
-7 -17 -16 -20 -24 -9 -26 -8 -13 17 8 13 14 79 17 160 l5 137 26 1 c20 1 18
3 -13 10 -26 6 -43 6 -51 -1 -8 -7 -15 -7 -19 -1 -3 5 9 18 27 29 21 12 49 46
75 91 22 39 39 71 37 71 -2 0 -15 -11 -29 -24z"/>
<path d="M913 1960 c0 -25 2 -35 4 -22 2 12 2 32 0 45 -2 12 -4 2 -4 -23z"/>
<path d="M634 1934 c-73 -44 -72 -43 -63 -79 l7 -30 1 33 c0 18 5 31 10 27 5
-3 9 -19 9 -35 -1 -17 2 -33 5 -37 4 -3 2 -12 -5 -20 -6 -7 -8 -16 -4 -20 3
-3 6 -1 6 5 0 27 17 9 28 -30 19 -65 21 -103 8 -129 -32 -66 -36 -79 -21 -79
7 0 21 7 29 16 13 13 16 45 16 195 0 113 4 179 10 179 6 0 10 -37 10 -90 l0
-90 26 0 26 0 -4 87 c-2 57 -7 88 -16 91 -19 6 -14 22 8 22 11 0 20 5 20 10 0
21 -48 9 -106 -26z m67 -51 c-12 -20 -14 -14 -5 12 4 9 9 14 11 11 3 -2 0 -13
-6 -23z m-59 -15 c3 -18 2 -44 -2 -58 -7 -24 -8 -23 -20 17 -13 41 -9 73 9 73
5 0 11 -14 13 -32z m68 -57 c0 -34 -10 -20 -15 20 -3 25 -2 30 5 19 5 -8 10
-26 10 -39z"/>
<path d="M760 1946 c0 -19 5 -24 20 -23 14 1 20 8 20 24 0 16 -6 23 -20 23
-15 0 -20 -7 -20 -24z m30 0 c0 -3 -4 -8 -10 -11 -5 -3 -10 -1 -10 4 0 6 5 11
10 11 6 0 10 -2 10 -4z"/>
<path d="M862 1954 c-12 -8 -22 -24 -22 -34 0 -10 -6 -21 -12 -23 -7 -3 -3 -6
10 -6 13 -1 22 5 22 14 0 21 18 19 24 -2 10 -36 4 -112 -10 -124 -11 -9 -15
-8 -19 3 -3 8 -5 19 -4 24 1 5 1 22 0 37 -1 25 -3 27 -16 13 -17 -17 -20 -30
-5 -21 6 3 10 2 10 -4 0 -5 -6 -12 -12 -14 -10 -4 -10 -6 0 -6 6 -1 12 -14 12
-29 0 -26 3 -29 36 -30 l36 -1 -6 87 c-4 48 -7 97 -7 110 -1 26 -7 27 -37 6z"/>
<path d="M931 1943 c1 -17 3 -21 6 -10 2 9 13 17 24 17 10 0 19 5 19 10 0 6
-11 10 -25 10 -21 0 -25 -5 -24 -27z"/>
<path d="M1683 1963 c-18 -6 -16 -43 1 -43 7 0 16 11 18 25 5 25 3 27 -19 18z"/>
<path d="M2438 1963 c-15 -4 -27 -43 -14 -43 15 0 35 14 30 21 -3 5 0 9 5 9 6
0 11 5 11 10 0 10 -3 11 -32 3z"/>
<path d="M758 1869 c-3 -35 -1 -39 19 -39 27 0 31 25 6 34 -15 6 -14 8 2 20
17 12 17 13 -3 18 -17 5 -21 0 -24 -33z"/>
<path d="M930 1869 c0 -38 1 -39 33 -38 l32 1 -27 10 c-32 11 -38 44 -10 50
14 3 13 5 -5 10 -21 6 -23 3 -23 -33z"/>
<path d="M1674 1894 c3 -9 6 -18 6 -20 0 -2 5 -4 10 -4 6 0 10 9 10 20 0 12
-7 20 -16 20 -11 0 -14 -5 -10 -16z"/>
<path d="M2420 1870 c0 -43 0 -43 24 -34 14 5 14 8 0 22 -15 14 -15 17 0 28
15 11 15 12 0 18 -24 9 -24 9 -24 -34z"/>
<path d="M1240 1887 c-12 -7 -21 -14 -19 -17 7 -9 -25 -38 -35 -32 -5 3 -6 -3
-3 -14 7 -18 6 -18 -8 1 -37 51 -48 55 -80 31 -23 -17 -25 -74 -2 -91 10 -7
17 -22 17 -34 0 -12 5 -32 11 -43 9 -17 8 -23 -5 -30 -9 -5 -14 -13 -11 -19 4
-5 0 -12 -8 -15 -21 -8 -23 -119 -2 -150 8 -13 13 -24 10 -24 -4 0 6 -11 22
-24 15 -13 32 -22 36 -19 5 3 -1 12 -12 20 -32 22 -51 67 -51 122 0 43 5 54
36 88 35 37 36 38 15 52 -14 9 -21 24 -21 47 0 30 -7 38 -30 36 -5 -1 -6 34
-1 61 0 5 13 7 28 5 18 -2 29 -10 33 -24 7 -31 44 -15 71 31 22 37 36 37 72
-3 15 -16 18 -40 18 -153 1 -149 4 -169 24 -169 7 0 24 -14 37 -30 50 -66 67
-82 85 -78 15 3 12 7 -12 22 -17 10 -36 30 -42 44 -7 15 -13 90 -15 168 l-3
140 30 2 c31 3 85 46 85 68 0 7 5 16 11 20 8 5 10 -1 7 -19 -3 -17 -1 -24 8
-20 6 2 15 0 19 -6 3 -7 -2 -11 -15 -11 -11 0 -31 -9 -43 -20 -12 -11 -35 -24
-52 -28 -16 -5 -29 -11 -27 -15 1 -4 2 -25 2 -48 0 -22 4 -38 9 -34 5 3 8 20
5 39 -3 25 0 36 12 40 9 4 17 5 18 4 1 -2 7 -14 14 -27 8 -12 9 -20 3 -16 -6
3 -11 1 -11 -4 0 -6 2 -11 4 -11 2 0 12 -3 20 -6 12 -5 15 -2 9 12 -4 12 -3
15 5 10 7 -4 12 -14 12 -22 0 -8 5 -12 10 -9 16 10 12 29 -11 54 -20 21 -19
59 1 46 5 -3 18 -1 27 4 16 9 15 11 -7 12 l-25 1 25 7 c17 5 31 3 43 -7 22
-19 22 -43 -1 -68 -23 -24 -35 -54 -22 -54 6 0 10 7 10 15 0 8 3 15 8 15 9 0
32 49 32 68 0 12 -38 69 -67 100 -18 19 -45 7 -65 -28 -10 -17 -28 -32 -45
-35 -59 -13 -58 -11 -56 -159 1 -75 -2 -136 -6 -136 -19 0 -30 55 -35 177 -4
120 -7 136 -28 162 -29 38 -40 42 -68 28z"/>
<path d="M2260 1890 c0 -6 -9 -21 -20 -33 -14 -14 -17 -23 -9 -26 6 -2 15 2
19 9 6 9 9 9 13 -1 3 -8 6 3 6 24 1 20 -1 37 -4 37 -3 0 -5 -5 -5 -10z"/>
<path d="M532 1860 c-16 -26 -15 -30 6 -30 11 0 17 8 18 25 2 30 -7 32 -24 5z"/>
<path d="M1670 1845 c0 -8 7 -15 15 -15 8 0 15 7 15 15 0 8 -7 15 -15 15 -8 0
-15 -7 -15 -15z"/>
<path d="M1244 1826 c-4 -18 -18 -29 -47 -39 -37 -12 -42 -18 -45 -47 -3 -32
9 -50 35 -50 23 0 44 32 41 64 -2 19 2 31 10 32 6 1 22 3 35 4 21 2 21 2 -3
10 -25 8 -25 8 5 10 l30 2 -30 8 c-16 4 -22 8 -12 9 10 0 15 6 12 11 -11 17
-24 11 -31 -14z m-36 -84 c-5 -24 -38 -28 -38 -5 0 12 8 19 21 20 14 1 19 -3
17 -15z"/>
<path d="M1815 1840 c-3 -5 1 -10 10 -10 9 0 13 5 10 10 -3 6 -8 10 -10 10 -2
0 -7 -4 -10 -10z"/>
<path d="M2562 1768 c2 -69 2 -70 5 -16 3 49 7 57 26 61 20 4 20 4 -3 6 -20 1
-22 3 -10 11 13 8 12 10 -2 10 -16 0 -18 -9 -16 -72z"/>
<path d="M513 1813 c9 -2 25 -2 35 0 9 3 1 5 -18 5 -19 0 -27 -2 -17 -5z"/>
<path d="M763 1813 c9 -2 25 -2 35 0 9 3 1 5 -18 5 -19 0 -27 -2 -17 -5z"/>
<path d="M948 1813 c12 -2 32 -2 45 0 12 2 2 4 -23 4 -25 0 -35 -2 -22 -4z"/>
<path d="M1128 1813 c7 -3 16 -2 19 1 4 3 -2 6 -13 5 -11 0 -14 -3 -6 -6z"/>
<path d="M1678 1813 c6 -2 18 -2 25 0 6 3 1 5 -13 5 -14 0 -19 -2 -12 -5z"/>
<path d="M1808 1813 c12 -2 30 -2 40 0 9 3 -1 5 -23 4 -22 0 -30 -2 -17 -4z"/>
<path d="M2042 1795 c-13 -13 -37 -27 -53 -30 -30 -7 -35 -25 -9 -33 7 -3 10
0 6 6 -3 5 1 13 10 16 27 10 31 7 32 -21 0 -16 0 -41 1 -58 l2 -30 19 24 c21
25 27 66 10 76 -18 11 -11 35 13 45 13 5 16 9 7 10 -13 0 -13 1 0 10 13 9 13
10 0 9 -8 -1 -26 -12 -38 -24z"/>
<path d="M500 1790 c0 -5 -11 -12 -25 -16 -31 -8 -65 -54 -64 -86 0 -19 3 -16
16 14 9 23 20 35 27 31 6 -3 7 -2 3 2 -4 5 18 22 50 37 55 26 56 28 26 28 -18
0 -33 -4 -33 -10z"/>
<path d="M573 1735 c0 -38 2 -53 4 -32 2 20 2 52 0 70 -2 17 -4 1 -4 -38z"/>
<path d="M758 1745 c4 -50 2 -55 -20 -59 -12 -3 -32 -5 -43 -3 -16 2 -19 -3
-17 -28 2 -17 -2 -51 -8 -75 -6 -25 -12 -50 -13 -56 -2 -6 -15 -22 -30 -36
-15 -14 -27 -34 -26 -44 0 -18 1 -18 8 -1 4 10 10 18 14 17 33 -5 67 56 72
130 6 93 15 85 14 -13 -1 -84 14 -157 31 -157 5 0 17 -3 27 -7 12 -4 10 0 -7
14 -24 20 -25 26 -25 134 l0 113 29 3 c29 2 50 13 25 13 -22 0 -23 97 0 103 9
3 6 5 -9 6 -24 1 -25 -1 -22 -54z"/>
<path d="M930 1670 l0 -130 43 2 c37 1 38 2 9 5 -18 2 -30 9 -27 14 4 5 2 9
-3 9 -11 0 -3 61 10 78 8 8 6 12 -5 12 -10 0 -15 8 -14 20 1 11 8 20 16 20 12
0 12 2 -1 13 -11 8 -15 22 -11 44 4 27 10 33 37 36 26 3 24 4 -11 5 l-43 2 0
-130z"/>
<path d="M1118 1793 c6 -2 18 -2 25 0 6 3 1 5 -13 5 -14 0 -19 -2 -12 -5z"/>
<path d="M1673 1735 c-1 -47 3 -65 12 -65 9 0 14 20 17 65 2 54 0 65 -13 65
-13 0 -16 -13 -16 -65z"/>
<path d="M1758 1793 c-21 -5 -33 -43 -24 -78 4 -17 2 -25 -6 -25 -9 0 -8 -3 2
-10 9 -6 11 -13 5 -17 -14 -11 -12 -46 3 -51 9 -3 12 16 12 73 0 50 4 74 10
70 7 -4 10 -46 9 -105 -2 -55 -6 -97 -11 -94 -4 3 -8 14 -8 25 0 10 -5 19 -11
19 -6 0 -8 -9 -4 -21 5 -14 2 -25 -6 -30 -11 -7 -11 -9 -1 -9 7 0 20 -7 28
-15 32 -31 36 -16 32 125 l-3 139 35 4 c34 4 34 4 -5 4 -22 0 -48 -1 -57 -4z"/>
<path d="M2100 1791 c0 -6 5 -13 10 -16 6 -3 10 1 10 9 0 9 -4 16 -10 16 -5 0
-10 -4 -10 -9z"/>
<path d="M2243 1735 c0 -38 2 -53 4 -32 2 20 2 52 0 70 -2 17 -4 1 -4 -38z"/>
<path d="M2263 1740 c0 -36 2 -50 4 -32 2 17 2 47 0 65 -2 17 -4 3 -4 -33z"/>
<path d="M2512 1784 c-22 -15 -30 -44 -12 -44 6 0 10 5 10 12 0 6 3 8 8 4 4
-4 7 -54 7 -111 0 -67 -3 -101 -10 -94 -5 5 -10 31 -10 57 -3 93 -5 115 -12
108 -11 -11 -10 -176 1 -176 5 0 6 -3 3 -7 -4 -3 1 -11 10 -18 15 -11 15 -14
-5 -35 -12 -13 -21 -33 -21 -44 2 -20 2 -20 6 0 4 22 33 37 50 25 6 -3 15 -16
22 -28 6 -13 19 -23 29 -22 11 0 12 2 4 6 -32 13 -41 59 -43 221 -2 89 -6 162
-9 162 -3 0 -16 -7 -28 -16z"/>
<path d="M2585 1790 c4 -6 11 -8 16 -5 14 9 11 15 -7 15 -8 0 -12 -5 -9 -10z"/>
<path d="M2628 1788 c6 -7 9 -50 8 -95 -2 -46 1 -83 5 -83 5 0 9 43 9 95 0 81
-2 95 -16 95 -12 0 -14 -3 -6 -12z"/>
<path d="M2283 1725 c0 -33 2 -45 4 -27 2 18 2 45 0 60 -2 15 -4 0 -4 -33z"/>
<path d="M1256 1753 c-3 -3 -6 -13 -6 -20 0 -8 -29 -42 -65 -76 -49 -47 -65
-69 -65 -90 0 -24 4 -27 35 -27 23 0 35 -5 35 -14 0 -18 27 -29 36 -15 4 6 9
49 13 95 4 46 12 89 19 96 11 11 12 10 7 -4 -4 -10 -3 -18 3 -18 11 0 10 25
-1 36 -4 4 -2 13 4 20 10 13 -3 29 -15 17z m-38 -170 c-3 -51 -18 -39 -18 15
0 34 3 43 10 32 5 -8 9 -30 8 -47z m-38 2 c0 -28 -4 -35 -20 -35 -24 0 -27 32
-4 54 22 22 24 21 24 -19z"/>
<path d="M792 1730 c0 -14 2 -19 5 -12 2 6 2 18 0 25 -3 6 -5 1 -5 -13z"/>
<path d="M823 1730 c1 -8 7 -18 12 -22 10 -8 75 -11 75 -4 0 2 3 11 6 19 4 12
-5 16 -45 18 -41 3 -50 1 -48 -11z"/>
<path d="M590 1720 c0 -11 4 -20 9 -20 5 0 7 9 4 20 -3 11 -7 20 -9 20 -2 0
-4 -9 -4 -20z"/>
<path d="M680 1720 c0 -14 7 -20 24 -20 15 0 26 7 29 20 4 17 0 20 -24 20 -22
0 -29 -5 -29 -20z"/>
<path d="M1818 1703 c-7 -27 2 -36 22 -22 9 5 10 9 3 9 -6 0 -13 8 -15 18 -3
14 -5 13 -10 -5z"/>
<path d="M1970 1709 c0 -5 5 -7 10 -4 6 3 10 8 10 11 0 2 -4 4 -10 4 -5 0 -10
-5 -10 -11z"/>
<path d="M2080 1680 c-43 -54 -53 -94 -35 -136 9 -23 21 -34 35 -34 23 0 42
37 30 60 -10 20 -2 40 17 40 10 0 14 -6 10 -20 -3 -10 0 -21 7 -24 8 -3 7 -7
-2 -14 -8 -5 -13 -12 -13 -16 3 -20 -1 -28 -23 -37 -21 -10 -27 -20 -36 -56
-4 -18 19 -12 25 6 3 12 12 21 20 21 22 0 45 47 45 93 0 61 -30 86 -64 52 -12
-12 -13 -22 -5 -42 7 -19 6 -28 -3 -34 -40 -25 -36 72 6 114 14 14 26 33 26
41 0 8 6 17 13 19 7 4 6 6 -5 6 -9 1 -30 -17 -48 -39z"/>
<path d="M2583 1701 c1 -11 8 -21 15 -21 12 0 12 3 1 18 -7 9 -14 19 -16 21
-1 2 -1 -6 0 -18z"/>
<path d="M510 1690 c-20 -12 -10 -19 14 -10 11 3 15 9 10 13 -6 3 -16 2 -24
-3z"/>
<path d="M830 1676 c10 -13 10 -16 -1 -16 -10 0 -11 -2 -2 -8 6 -4 13 -34 15
-67 2 -44 8 -64 21 -74 11 -7 25 -29 33 -47 8 -20 27 -40 47 -50 l32 -16 -30
27 -30 27 0 117 0 118 -49 2 c-44 2 -48 0 -36 -13z m56 -90 c-1 -74 -9 -86
-27 -39 -12 33 -1 123 15 117 8 -3 12 -30 12 -78z"/>
<path d="M1474 1675 c16 -12 17 -15 4 -15 -11 0 -14 -7 -11 -23 3 -13 11 -24
19 -24 25 0 14 71 -11 75 -20 3 -20 3 -1 -13z"/>
<path d="M1978 1683 c7 -3 16 -2 19 1 4 3 -2 6 -13 5 -11 0 -14 -3 -6 -6z"/>
<path d="M593 1640 c1 -11 5 -20 9 -20 4 0 8 9 8 20 0 11 -4 20 -9 20 -6 0 -9
-9 -8 -20z"/>
<path d="M758 1600 l-3 -60 30 1 c17 0 24 3 18 6 -7 2 -13 12 -14 21 0 14 -2
13 -9 -3 -7 -15 -9 -9 -9 25 -1 33 2 41 9 30 5 -8 10 -10 10 -4 0 5 -6 16 -12
23 -9 10 -9 12 -1 7 6 -3 14 -2 18 4 3 5 -3 10 -14 10 -17 0 -20 -8 -23 -60z"/>
<path d="M1258 1600 l-3 -60 30 1 c25 2 26 2 6 6 -22 4 -23 8 -18 59 3 30 1
54 -3 54 -5 0 -10 -27 -12 -60z"/>
<path d="M1420 1600 c0 -47 3 -60 15 -60 13 0 14 4 5 21 -7 11 -9 38 -6 60 3
22 1 39 -4 39 -6 0 -10 -27 -10 -60z"/>
<path d="M1670 1600 c0 -50 3 -60 18 -60 15 0 17 8 14 60 -3 43 -8 60 -18 60
-10 0 -14 -15 -14 -60z"/>
<path d="M1815 1600 c0 -33 3 -60 8 -60 4 0 7 24 7 54 0 34 5 56 13 59 6 3 3
6 -8 6 -18 1 -20 -5 -20 -59z"/>
<path d="M1970 1640 c0 -12 7 -20 18 -20 13 0 14 2 3 9 -7 5 -10 14 -7 20 4 6
2 11 -3 11 -6 0 -11 -9 -11 -20z"/>
<path d="M2239 1605 c-4 -33 -5 -62 -3 -64 10 -12 15 12 12 65 l-3 59 -6 -60z"/>
<path d="M2263 1600 c0 -36 2 -50 4 -32 2 17 2 47 0 65 -2 17 -4 3 -4 -33z"/>
<path d="M2420 1586 c0 -71 1 -74 22 -68 21 5 21 6 2 13 -17 7 -16 8 6 9 18 2
20 4 8 7 -14 3 -18 15 -18 53 0 29 5 50 13 53 6 3 2 6 -10 6 -22 1 -23 -3 -23
-73z"/>
<path d="M2585 1640 c2 -31 15 -37 15 -7 0 15 -4 27 -8 27 -5 0 -8 -9 -7 -20z"/>
<path d="M1969 1578 c-5 -38 -5 -38 31 -37 29 2 30 3 8 6 -22 3 -27 10 -30 36
l-3 32 -6 -37z"/>
<path d="M1491 1578 c0 -16 -8 -28 -18 -31 -17 -4 -17 -5 0 -6 10 0 28 -10 40
-22 16 -14 30 -19 50 -15 34 7 36 -11 2 -20 -31 -8 -85 13 -85 32 0 8 -4 14
-8 14 -4 0 -7 -12 -6 -27 2 -45 5 -49 14 -28 9 20 9 20 9 0 1 -14 4 -16 9 -7
13 20 44 3 37 -19 -4 -11 -4 -19 -2 -19 11 0 67 56 67 67 0 14 -37 36 -49 29
-15 -9 -50 24 -54 52 l-4 27 -2 -27z"/>
<path d="M2637 1587 c-4 -11 -5 -23 -1 -28 8 -14 -30 -11 -45 4 -9 8 -12 8 -7
0 3 -6 -1 -13 -11 -16 -10 -3 1 -5 25 -6 23 0 42 -5 42 -10 0 -5 9 -13 20 -16
34 -11 23 -28 -12 -21 -21 4 -28 3 -19 -3 8 -5 10 -14 6 -21 -5 -9 -3 -11 6
-6 8 3 22 9 32 12 23 8 22 41 -2 54 -12 6 -21 23 -23 43 -2 25 -5 28 -11 14z"/>
<path d="M389 1521 c-32 -32 -37 -51 -14 -51 8 0 15 5 15 10 0 6 7 10 15 10 9
0 15 9 15 25 0 23 4 24 63 28 l62 3 -63 2 c-58 2 -66 -1 -93 -27z"/>
<path d="M438 1523 c6 -2 18 -2 25 0 6 3 1 5 -13 5 -14 0 -19 -2 -12 -5z"/>
<path d="M498 1523 c12 -2 32 -2 45 0 12 2 2 4 -23 4 -25 0 -35 -2 -22 -4z"/>
<path d="M571 1488 l2 -43 7 40 c4 22 8 32 9 23 2 -25 17 -23 17 2 0 13 -7 20
-18 20 -15 0 -18 -8 -17 -42z"/>
<path d="M761 1493 c1 -21 3 -30 6 -20 3 11 11 16 19 13 8 -3 14 -1 14 4 0 6
-7 10 -15 10 -21 0 -19 18 3 23 13 4 11 5 -5 6 -20 1 -23 -4 -22 -36z"/>
<path d="M930 1521 c0 -5 9 -7 20 -4 11 3 20 7 20 9 0 2 -9 4 -20 4 -11 0 -20
-4 -20 -9z"/>
<path d="M1128 1523 c7 -3 16 -2 19 1 4 3 -2 6 -13 5 -11 0 -14 -3 -6 -6z"/>
<path d="M1228 1498 c-16 -17 -28 -35 -28 -40 0 -5 -4 -6 -10 -3 -6 3 -7 -1
-4 -9 8 -20 14 -20 29 1 11 15 14 15 31 -5 10 -12 22 -22 27 -22 4 0 -1 10
-13 22 -27 29 -21 42 21 49 30 6 31 7 7 8 -16 0 -28 5 -28 10 0 5 12 12 28 14
27 4 27 4 -3 5 -21 0 -38 -9 -57 -30z"/>
<path d="M1428 1523 c7 -3 16 -2 19 1 4 3 -2 6 -13 5 -11 0 -14 -3 -6 -6z"/>
<path d="M1678 1523 c7 -3 16 -2 19 1 4 3 -2 6 -13 5 -11 0 -14 -3 -6 -6z"/>
<path d="M1725 1520 c3 -5 8 -10 11 -10 2 0 4 5 4 10 0 6 -5 10 -11 10 -5 0
-7 -4 -4 -10z"/>
<path d="M1978 1523 c6 -2 18 -2 25 0 6 3 1 5 -13 5 -14 0 -19 -2 -12 -5z"/>
<path d="M2282 1490 c0 -25 3 -36 5 -25 3 11 10 23 17 27 8 6 8 8 -1 8 -6 0
-14 8 -16 18 -3 9 -5 -3 -5 -28z"/>
<path d="M2588 1523 c7 -3 16 -2 19 1 4 3 -2 6 -13 5 -11 0 -14 -3 -6 -6z"/>
<path d="M2262 1485 c0 -16 2 -22 5 -12 2 9 2 23 0 30 -3 6 -5 -1 -5 -18z"/>
<path d="M508 1493 c12 -2 30 -2 40 0 9 3 -1 5 -23 4 -22 0 -30 -2 -17 -4z"/>
<path d="M930 1478 c1 -21 2 -21 13 -7 7 9 21 19 32 22 13 3 9 5 -12 6 -28 1
-33 -2 -33 -21z"/>
<path d="M1043 1493 c-13 -2 -23 -8 -23 -13 0 -5 -9 -12 -20 -15 -11 -3 -20
-13 -20 -21 0 -13 2 -13 16 1 9 8 29 22 45 30 16 9 29 18 29 20 0 3 -1 4 -2 4
-2 -1 -13 -4 -25 -6z"/>
<path d="M1143 1493 c16 -3 25 -9 21 -15 -4 -7 -2 -8 4 -4 22 14 12 26 -20 25
-31 -2 -31 -2 -5 -6z"/>
<path d="M1191 1484 c0 -11 3 -14 6 -6 3 7 2 16 -1 19 -3 4 -6 -2 -5 -13z"/>
<path d="M1327 1483 c-2 -10 -8 -27 -12 -38 -5 -14 1 -11 19 10 29 34 32 45
12 45 -7 0 -16 -8 -19 -17z"/>
<path d="M1685 1490 c3 -5 8 -10 11 -10 2 0 4 5 4 10 0 6 -5 10 -11 10 -5 0
-7 -4 -4 -10z"/>
<path d="M1720 1493 c0 -5 5 -15 10 -23 8 -13 10 -13 10 2 0 11 5 15 15 12 8
-4 15 -1 15 5 0 6 -11 11 -25 11 -14 0 -25 -3 -25 -7z"/>
<path d="M2000 1496 c0 -2 14 -6 30 -8 17 -3 30 -1 30 4 0 4 -13 8 -30 8 -16
0 -30 -2 -30 -4z"/>
<path d="M2438 1493 c12 -2 30 -2 40 0 9 3 -1 5 -23 4 -22 0 -30 -2 -17 -4z"/>
<path d="M2586 1485 c4 -8 8 -15 10 -15 2 0 4 7 4 15 0 8 -4 15 -10 15 -5 0
-7 -7 -4 -15z"/>
<path d="M2331 1481 c-8 -5 -9 -11 -3 -15 5 -3 12 1 16 9 6 17 6 18 -13 6z"/>
<path d="M433 1473 c-13 -2 -23 -9 -23 -14 0 -5 -7 -9 -15 -9 -20 0 -19 -13 3
-33 25 -22 48 -21 88 4 34 20 46 49 22 49 -7 0 -22 2 -33 4 -11 2 -30 2 -42
-1z m17 -23 c11 6 21 6 24 1 7 -10 -16 -21 -45 -21 -13 0 -17 5 -12 17 4 11 8
12 11 5 2 -8 9 -9 22 -2z"/>
<path d="M810 1455 c-7 -14 -10 -28 -7 -32 4 -3 7 1 7 11 0 9 5 14 10 11 6 -3
10 -4 10 -1 0 2 3 11 6 20 10 26 -11 18 -26 -9z"/>
<path d="M2220 1460 c0 -6 7 -13 15 -16 8 -4 15 -12 15 -19 0 -7 7 -15 15 -19
22 -8 18 5 -9 37 -25 28 -36 34 -36 17z"/>
<path d="M2296 1445 c-3 -9 0 -15 8 -15 7 0 13 7 13 15 0 8 -4 15 -8 15 -4 0
-9 -7 -13 -15z"/>
<path d="M2620 1440 c0 -5 5 -10 10 -10 6 0 10 5 10 10 0 6 -4 10 -10 10 -5 0
-10 -4 -10 -10z"/>
<path d="M1495 1410 c3 -5 14 -10 23 -10 15 0 15 2 2 10 -20 13 -33 13 -25 0z"/>
<path d="M2118 1368 c-31 -31 -64 -56 -55 -41 5 7 -10 4 -35 -7 -24 -11 -49
-20 -56 -20 -13 0 -60 -31 -96 -62 -11 -10 -26 -18 -33 -18 -7 0 -13 -4 -13
-10 0 -17 -25 -11 -48 10 -12 12 -22 17 -22 13 0 -4 -4 -3 -8 3 -11 16 -72
-12 -72 -33 0 -15 -2 -14 -14 2 -10 15 -17 17 -27 8 -8 -6 -28 -14 -45 -17
-29 -6 -33 -4 -43 24 -6 17 -15 29 -20 26 -5 -3 -8 2 -7 12 1 21 -39 29 -60
12 -17 -15 -48 5 -37 24 4 6 0 5 -9 -2 -14 -11 -16 -11 -11 6 3 14 -2 21 -16
25 -12 3 -21 2 -21 -2 0 -4 -10 -12 -23 -18 -20 -9 -25 -7 -40 18 -19 35 -42
37 -67 7 l-17 -22 -32 27 c-39 32 -55 27 -75 -24 -20 -51 -20 -65 2 -87 18
-18 19 -32 13 -169 -1 -13 -6 -23 -11 -23 -6 0 -10 -11 -10 -25 0 -14 -9 -42
-20 -62 -14 -26 -16 -40 -9 -49 6 -7 8 -18 4 -24 -3 -5 0 -10 8 -10 8 0 17 -9
20 -21 3 -12 10 -18 15 -15 5 3 15 -5 22 -19 15 -28 5 -41 -48 -69 -18 -9 -32
-21 -32 -26 0 -6 -7 -10 -15 -10 -8 0 -15 -4 -15 -8 0 -5 -12 -15 -27 -23 -44
-23 -68 -51 -87 -101 -18 -48 -12 -81 15 -90 7 -2 5 -15 -8 -36 -11 -17 -22
-29 -26 -26 -3 3 -1 -10 5 -29 6 -20 17 -38 25 -41 21 -9 61 11 68 34 8 25
-12 90 -28 90 -9 0 -9 2 -1 8 20 13 35 51 30 78 -5 28 25 63 55 64 9 0 24 9
34 20 10 11 22 20 28 20 5 0 22 9 38 21 16 11 36 22 44 23 9 1 21 8 27 14 17
17 24 15 52 -13 14 -14 29 -25 34 -25 5 0 17 -9 27 -20 10 -11 24 -20 31 -20
7 0 40 -14 72 -30 68 -34 121 -39 145 -12 10 10 14 22 10 25 -3 4 3 7 15 7 11
0 27 8 34 19 7 10 21 17 31 15 10 -1 26 5 36 14 17 16 25 20 64 28 10 2 27 6
37 9 10 3 21 1 25 -5 10 -16 54 -12 74 8 10 9 26 31 34 48 15 29 15 33 -2 48
-10 9 -23 16 -29 14 -15 -4 -15 3 -3 46 12 44 2 66 -29 66 -20 0 -43 23 -33
33 3 4 14 7 23 7 42 0 65 67 35 100 -14 15 -14 19 2 31 15 12 16 12 8 -1 -5
-8 4 -4 20 9 17 12 44 29 60 35 17 7 52 32 78 56 39 36 45 45 34 58 -10 13 -8
13 13 -1 32 -21 66 -18 88 7 13 15 13 17 2 11 -12 -6 -13 -5 -2 6 15 17 16 43
0 33 -7 -5 -9 -2 -5 8 8 22 -12 46 -45 53 -21 5 -33 1 -50 -17z m60 -7 c12 -6
18 -21 17 -43 0 -31 -3 -33 -35 -36 l-35 -2 29 24 c35 29 27 56 -10 31 -28
-18 -34 0 -6 21 21 16 19 16 40 5z m-998 -25 c0 -2 -7 -9 -15 -16 -12 -10 -15
-10 -15 4 0 9 7 16 15 16 8 0 15 -2 15 -4z m99 -18 c-9 -16 -14 -19 -17 -9 -2
7 2 17 9 22 20 13 21 11 8 -13z m871 -3 c-7 -8 -28 -17 -49 -21 -53 -10 -74
-23 -35 -24 37 0 47 -8 31 -24 -9 -10 -18 -9 -43 6 -30 17 -35 18 -68 4 -35
-14 -53 -35 -20 -22 9 3 29 -2 45 -11 57 -34 24 -46 -39 -14 -35 18 -38 18
-58 2 l-22 -17 27 -11 c14 -7 38 -10 54 -8 15 2 27 -1 27 -7 0 -6 -9 -8 -20
-5 -11 3 -20 1 -20 -3 0 -18 -40 -20 -65 -4 -21 14 -31 15 -51 5 -30 -13 -34
-14 -34 -3 0 5 24 24 53 42 28 19 54 37 57 41 15 20 183 84 198 75 4 -2 14 -1
22 5 21 13 24 11 10 -6z m-942 -58 c-2 -25 -8 -33 -26 -35 -49 -7 -70 44 -30
72 32 23 60 4 56 -37z m192 44 c0 -12 -20 -25 -27 -18 -7 7 6 27 18 27 5 0 9
-4 9 -9z m-82 -38 c4 -26 17 -30 26 -8 7 20 60 19 76 -1 10 -11 11 -23 4 -42
-8 -22 -16 -27 -44 -27 -26 0 -37 6 -46 23 -10 20 -12 21 -24 7 -16 -20 -59
-16 -73 6 -5 9 -7 28 -3 43 6 24 11 27 44 24 30 -2 38 -7 40 -25z m186 -14
c-3 -5 -10 -7 -15 -3 -5 3 -7 10 -3 15 3 5 10 7 15 3 5 -3 7 -10 3 -15z m27
-40 c17 -33 -3 -69 -38 -69 -47 0 -67 26 -52 68 12 31 73 32 90 1z m539 17 c0
-11 -19 -15 -25 -6 -3 5 1 10 9 10 9 0 16 -2 16 -4z m-292 -40 c13 -19 32 -58
43 -87 19 -50 41 -79 61 -79 4 0 8 7 8 16 0 8 -4 12 -10 9 -5 -3 -10 1 -10 10
0 10 7 15 18 13 27 -5 23 -52 -6 -56 -30 -5 -59 22 -68 62 -6 31 -41 106 -48
106 -3 0 -11 3 -20 6 -11 4 -16 1 -16 -11 0 -21 -24 -14 -28 8 -2 10 6 21 20
26 33 14 31 14 56 -23z m-588 -27 c5 -41 9 -45 40 -40 5 0 13 16 18 33 4 18
15 34 23 36 11 2 13 -8 11 -48 -3 -40 -1 -51 14 -57 20 -7 54 29 54 58 0 10 6
19 13 19 9 0 13 -16 12 -52 0 -48 2 -53 23 -56 19 -3 26 4 40 37 9 23 23 41
30 41 15 0 15 5 -3 -54 -8 -26 -12 -52 -9 -57 11 -18 44 -8 75 22 40 39 62 25
30 -19 -11 -17 -21 -40 -21 -52 0 -13 -4 -19 -11 -14 -7 4 -7 -1 1 -16 10 -18
9 -21 -2 -18 -7 3 -13 16 -13 30 1 22 -3 25 -34 24 -25 -1 -38 5 -45 19 -7 13
-19 19 -34 17 -29 -4 -52 14 -52 40 0 17 -3 18 -14 8 -22 -17 -59 -8 -72 18
-7 15 -14 20 -18 13 -10 -16 -47 -13 -68 6 -13 11 -18 30 -18 65 0 63 23 61
30 -3z m40 25 c0 -8 -5 -12 -10 -9 -6 4 -8 11 -5 16 9 14 15 11 15 -7z m435
-4 c3 -5 -3 -10 -14 -10 -12 0 -21 5 -21 10 0 6 6 10 14 10 8 0 18 -4 21 -10z
m-27 -26 c30 -21 29 -59 -3 -80 -22 -14 -30 -15 -50 -4 -33 18 -40 45 -21 75
19 29 42 32 74 9z m-215 -34 c-5 -20 -23 -38 -23 -23 1 22 13 52 20 48 5 -3 6
-14 3 -25z m362 -5 c0 -10 -6 -20 -14 -23 -10 -3 -12 0 -8 12 6 15 4 15 -23 1
l-30 -16 27 -23 c20 -17 24 -28 18 -42 -7 -17 -8 -17 -14 6 -6 21 -8 22 -14 8
-7 -20 -47 -25 -47 -6 0 6 -2 9 -5 6 -3 -3 -2 -13 1 -23 5 -12 14 -15 35 -11
16 3 31 1 35 -5 4 -7 11 -6 20 2 11 9 20 8 40 -6 22 -14 25 -22 20 -51 -6 -28
-4 -33 9 -28 20 8 55 -23 55 -47 0 -23 -42 -52 -63 -43 -20 7 -31 38 -23 69 5
19 3 22 -14 18 -30 -8 -63 25 -55 55 5 22 3 24 -17 19 -13 -4 -29 0 -39 9 -10
9 -19 11 -23 5 -4 -5 -2 -13 4 -16 6 -4 -2 -19 -21 -36 -18 -17 -29 -35 -26
-44 4 -8 2 -17 -3 -20 -6 -4 -10 0 -11 7 0 7 -2 21 -4 31 -2 10 1 14 7 11 7
-5 8 -2 3 6 -6 9 -4 11 5 5 9 -6 11 -4 5 5 -6 9 -4 11 5 5 9 -5 11 -4 6 3 -5
9 -14 7 -33 -5 -14 -9 -21 -19 -14 -21 17 -6 2 -22 -21 -22 -18 0 -19 2 -7 17
10 11 10 14 2 9 -7 -4 -13 -4 -13 1 0 4 27 24 60 43 46 26 59 38 54 52 -6 19
28 56 81 89 35 22 50 20 50 -6z m89 -6 c-5 -9 -34 -13 -34 -5 0 2 -3 12 -6 21
-6 14 -3 14 19 4 15 -7 24 -16 21 -20z m31 13 c-3 -3 -11 0 -18 7 -9 10 -8 11
6 5 10 -3 15 -9 12 -12z m-380 -22 c4 -6 2 -17 -4 -24 -6 -7 -9 -15 -6 -18 3
-2 -1 -5 -9 -5 -7 0 -12 7 -11 16 2 9 4 22 4 29 1 15 17 16 26 2z m230 -10 c3
-5 -1 -10 -10 -10 -9 0 -13 5 -10 10 3 6 8 10 10 10 2 0 7 -4 10 -10z m45 -14
c0 -15 -24 -28 -34 -19 -7 7 13 33 25 33 5 0 9 -6 9 -14z m-554 -22 c44 -15
116 -46 160 -70 45 -23 85 -40 89 -36 4 4 5 2 3 -4 -3 -9 63 -74 76 -74 3 0 6
10 7 23 0 22 0 22 10 -2 7 -19 12 -22 21 -13 7 7 21 12 31 12 10 0 31 9 46 19
19 13 32 17 42 10 11 -7 8 -14 -18 -35 -55 -43 -34 -81 28 -50 30 15 49 14 49
-4 0 -13 -71 -51 -82 -44 -6 4 -8 2 -5 -3 4 -6 -1 -17 -10 -24 -15 -12 -16
-12 -11 8 3 12 3 22 -1 21 -20 -2 -31 3 -26 13 4 6 14 8 24 5 9 -4 5 2 -8 12
-16 13 -20 21 -12 26 6 4 8 12 5 18 -4 6 -3 9 2 6 5 -3 20 9 33 26 l25 31 -25
-22 c-14 -13 -31 -23 -38 -23 -7 0 -11 -6 -8 -15 4 -8 2 -17 -4 -20 -5 -4 -12
1 -15 9 -3 9 -10 16 -16 16 -5 0 -6 -4 -3 -10 9 -14 -8 -13 -23 2 -7 7 -12 8
-12 2 0 -14 55 -65 63 -59 4 3 5 2 2 -1 -2 -4 8 -23 24 -43 35 -45 45 -80 22
-76 -10 1 -15 11 -14 24 2 15 -1 20 -9 15 -7 -4 -8 -3 -4 5 5 7 -28 47 -86
104 -74 73 -112 102 -185 140 -51 27 -97 45 -103 42 -5 -3 -10 -2 -10 3 0 12
-84 42 -117 42 -13 0 -23 5 -23 10 0 15 21 12 106 -16z m394 -31 c0 -10 -6
-13 -16 -9 -8 3 -12 2 -9 -4 3 -5 -4 -14 -15 -20 -11 -6 -20 -7 -20 -3 0 4 -5
1 -10 -7 -7 -11 -10 -11 -10 -2 0 17 61 73 72 66 4 -3 8 -12 8 -21z m-346 -32
c110 -44 138 -60 130 -73 -4 -7 -3 -8 5 -4 22 14 157 -101 209 -178 22 -33 24
-40 12 -50 -8 -6 -15 -17 -15 -25 0 -8 -6 -16 -14 -19 -10 -3 -12 0 -7 13 9
25 -26 58 -45 42 -7 -7 -5 -2 5 11 18 21 43 32 31 13 -3 -5 0 -13 6 -17 8 -4
9 -3 5 4 -4 7 -2 12 3 12 6 0 11 -5 11 -12 0 -6 2 -9 5 -6 8 7 -6 39 -14 34
-4 -3 -13 -1 -21 5 -10 6 -11 9 -2 9 6 0 12 5 12 11 0 6 -7 9 -14 6 -11 -4
-13 -1 -9 10 4 10 2 14 -5 9 -6 -3 -13 3 -17 14 -3 11 -11 19 -18 17 -6 -1
-11 3 -12 10 0 6 -4 15 -8 20 -5 4 -7 4 -5 -2 2 -6 -1 -10 -7 -10 -5 0 -9 3
-8 6 1 4 -9 17 -22 29 -18 17 -25 19 -25 9 0 -8 5 -20 12 -27 9 -9 9 -12 0
-12 -7 0 -12 5 -12 11 0 5 -4 8 -9 4 -5 -3 -13 0 -17 6 -4 8 -3 9 4 5 28 -17
9 14 -23 38 -29 22 -36 25 -41 12 -3 -8 1 -29 9 -46 9 -16 13 -30 10 -30 -11
0 -73 42 -73 49 0 4 -8 7 -17 7 -10 1 -27 4 -38 8 -11 4 0 -4 25 -17 104 -55
180 -104 173 -111 -5 -4 -3 -6 4 -4 6 1 25 -12 41 -31 20 -22 35 -30 44 -25
10 6 11 5 1 -8 -11 -12 -9 -18 6 -32 15 -13 20 -14 24 -4 2 7 7 10 11 7 9 -8
-15 -61 -34 -76 -15 -12 -68 11 -207 90 -34 19 -64 33 -67 29 -3 -3 -6 0 -6 7
0 7 -5 9 -12 5 -9 -5 -8 -2 1 9 10 13 17 14 26 7 10 -8 15 -6 20 9 3 12 10 21
14 21 4 0 38 -23 75 -51 59 -44 66 -53 54 -67 -11 -15 -11 -15 3 -4 14 11 20
9 37 -13 23 -29 48 -35 33 -7 -14 26 -133 147 -158 160 -18 10 -30 7 -77 -18
-68 -35 -74 -26 -9 13 29 18 54 26 68 23 27 -7 140 -109 177 -160 22 -30 28
-35 28 -19 0 11 -24 45 -52 75 -93 96 -259 192 -356 205 l-47 6 17 -24 c9 -14
24 -23 34 -21 13 2 15 0 6 -6 -16 -11 41 -67 58 -57 8 5 11 3 8 -6 -6 -17 -40
-12 -51 7 -5 8 -12 12 -17 9 -5 -3 -11 -1 -15 5 -4 6 -12 7 -18 3 -8 -4 -7 -1
1 9 10 13 10 18 1 24 -8 5 -9 3 -4 -7 7 -12 6 -12 -7 -1 -10 8 -14 20 -11 29
4 10 2 14 -4 10 -6 -4 -8 3 -5 18 3 18 11 25 28 25 17 0 22 4 18 15 -5 11 1
15 19 15 14 0 27 6 30 14 3 8 -1 13 -11 12 -10 -1 -18 8 -20 21 -3 20 0 21 25
14 15 -5 63 -23 107 -40z m-139 -9 c-4 -4 -10 -1 -13 7 -4 11 -6 11 -13 0 -7
-11 -9 -11 -9 3 0 9 6 18 13 21 14 5 32 -21 22 -31z m684 24 c10 -12 8 -13 -8
-9 -12 3 -21 9 -21 14 0 14 16 11 29 -5z m-139 -54 c0 -5 -14 -19 -32 -32
l-32 -23 23 31 c21 30 41 42 41 24z m-280 -70 c-5 -2 -6 -10 -3 -18 10 -26
-12 -14 -24 13 -19 40 -16 46 11 26 13 -10 20 -19 16 -21z m490 28 c0 -5 -4
-10 -9 -10 -6 0 -13 5 -16 10 -3 6 1 10 9 10 9 0 16 -4 16 -10z m-660 -39 c25
-12 35 -19 24 -16 -14 4 -24 0 -28 -10 -6 -17 -26 -21 -26 -4 0 5 5 7 10 4 6
-3 10 1 10 9 0 9 -19 21 -47 30 -30 10 -36 14 -18 12 17 -3 50 -14 75 -25z
m512 4 c0 -5 -15 -16 -34 -23 l-33 -14 25 25 c25 25 41 30 42 12z m-555 -31
c-9 -9 -28 6 -21 18 4 6 10 6 17 -1 6 -6 8 -13 4 -17z m288 -4 c-5 -8 25 -38
32 -32 11 9 33 -18 39 -46 8 -40 -1 -40 -55 -1 -29 20 -41 35 -37 46 5 12 1
14 -19 11 -13 -3 -22 -2 -20 3 3 4 -3 10 -12 12 -10 2 -2 3 18 1 42 -4 53 3
36 25 -11 14 -10 14 5 2 10 -7 16 -17 13 -21z m-175 -7 c0 -5 -79 -60 -175
-123 -101 -67 -175 -122 -175 -131 0 -8 6 -24 14 -34 12 -17 12 -22 -7 -37
-18 -16 -22 -17 -35 -4 -13 13 -13 20 5 62 19 43 34 56 189 160 165 111 184
122 184 107z m335 -13 c3 -6 -1 -7 -9 -4 -18 7 -21 14 -7 14 6 0 13 -4 16 -10z
m147 -32 c-7 -7 -12 -8 -12 -2 0 14 12 26 19 19 2 -3 -1 -11 -7 -17z m102 13
c3 -5 15 -7 26 -4 12 3 20 0 20 -7 0 -7 -7 -10 -15 -6 -11 4 -15 -2 -15 -20 0
-29 -44 -52 -66 -33 -20 17 -27 48 -14 64 14 17 56 20 64 6z m-170 -38 c4 -5
24 -8 44 -8 45 0 53 -21 10 -27 -18 -3 -42 -8 -53 -12 -16 -6 -17 -6 -5 3 13
9 11 11 -7 11 -12 0 -25 4 -28 10 -3 6 1 7 10 4 11 -5 14 -2 9 10 -6 16 7 22
20 9z m-749 -339 c5 -29 2 -40 -14 -55 -20 -19 -20 -19 -31 0 -8 15 -6 29 7
55 9 20 20 36 24 36 4 0 10 -16 14 -36z"/>
<path d="M1184 1267 c1 -13 -4 -21 -11 -19 -7 1 -13 -3 -13 -9 0 -6 7 -8 16
-5 9 3 18 6 20 6 8 0 4 39 -4 44 -5 3 -8 -5 -8 -17z"/>
<path d="M1297 1259 c4 -15 0 -22 -16 -26 -11 -3 -18 -9 -15 -14 3 -5 14 -5
25 1 20 11 26 45 10 54 -5 4 -7 -3 -4 -15z"/>
<path d="M1400 1233 c0 -21 -10 -28 -33 -24 -5 1 -6 -3 -2 -9 10 -16 33 -12
44 8 6 11 6 24 0 33 -7 11 -9 9 -9 -8z"/>
<path d="M1508 1191 c-6 -19 -12 -23 -35 -18 -26 5 -26 4 -8 -9 22 -16 25 -17
43 -5 8 4 12 19 10 32 l-3 24 -7 -24z"/>
<path d="M1632 1119 c-10 -15 -21 -20 -38 -16 -16 3 -23 0 -21 -7 7 -21 55
-19 67 4 15 29 8 45 -8 19z"/>
<path d="M1635 970 c-3 -6 1 -7 9 -4 18 7 21 14 7 14 -6 0 -13 -4 -16 -10z"/>
<path d="M1806 954 c-4 -11 -14 -15 -32 -11 -23 4 -24 3 -11 -10 12 -12 19
-13 36 -4 11 7 21 18 21 26 0 20 -6 19 -14 -1z"/>
<path d="M1814 867 c3 -10 6 -21 6 -23 0 -2 8 -4 19 -4 20 0 48 27 37 37 -3 3
-6 1 -6 -5 0 -13 -42 -12 -53 3 -5 6 -6 2 -3 -8z"/>
<path d="M1220 990 c0 -5 5 -10 10 -10 6 0 10 5 10 10 0 6 -4 10 -10 10 -5 0
-10 -4 -10 -10z"/>
<path d="M1197 966 c-3 -8 0 -17 7 -19 10 -4 12 1 9 14 -6 23 -9 24 -16 5z"/>
<path d="M1230 964 c0 -21 37 -44 70 -44 l33 0 -23 25 c-23 24 -47 35 -35 15
9 -14 -19 -12 -33 2 -7 7 -12 8 -12 2z"/>
<path d="M1170 948 c0 -15 57 -44 68 -34 2 3 -7 8 -22 12 -14 3 -31 14 -36 23
-9 15 -9 15 -10 -1z"/>
<path d="M1335 901 c-3 -5 -2 -12 3 -15 5 -3 9 1 9 9 0 17 -3 19 -12 6z"/>
<path d="M1327 740 c3 -11 9 -17 15 -14 5 3 4 12 -3 20 -16 19 -18 18 -12 -6z"/>
<path d="M1429 687 c6 -8 7 -18 3 -22 -4 -5 -1 -5 6 -1 10 6 10 11 1 22 -6 8
-14 14 -16 14 -3 0 0 -6 6 -13z"/>
<path d="M1485 801 c-6 -11 -5 -12 15 -15 6 0 14 -6 18 -12 10 -15 42 -25 42
-13 0 5 -8 12 -17 16 -10 3 -25 12 -35 20 -11 10 -18 11 -23 4z"/>
<path d="M1900 771 c0 -7 -10 -10 -26 -7 -17 3 -24 1 -21 -7 6 -19 46 -21 53
-2 4 9 4 19 0 22 -3 4 -6 1 -6 -6z"/>
<path d="M943 313 c-11 -10 -25 -30 -31 -46 -23 -54 48 -87 86 -39 16 21 15
37 -3 72 -18 35 -26 36 -52 13z m33 -19 c-4 -9 -1 -23 5 -30 16 -19 4 -44 -21
-44 -29 0 -34 22 -15 59 16 32 42 44 31 15z"/>
</g>
</svg>
